<?xml version="1.0" standalone="no"?>
<!DOCTYPE svg PUBLIC "-//W3C//DTD SVG 20010904//EN"
 "http://www.w3.org/TR/2001/REC-SVG-20010904/DTD/svg10.dtd">
<svg version="1.0" xmlns="http://www.w3.org/2000/svg"
 width="1200.000000pt" height="1170.000000pt" viewBox="0 0 1200.000000 1170.000000"
 preserveAspectRatio="xMidYMid meet">

<g transform="translate(0.000000,1170.000000) scale(0.100000,-0.100000)"
fill="#000000" stroke="none">
<path d="M1955 11693 c-328 -28 -658 -135 -925 -297 -547 -334 -899 -860
-1008 -1507 -16 -98 -17 -346 -17 -4039 0 -3693 1 -3941 17 -4039 80 -475 275
-859 603 -1186 353 -354 799 -565 1299 -614 152 -15 7997 -15 8152 0 674 65
1264 436 1620 1019 155 253 263 584 293 894 15 153 15 7699 0 7852 -48 496
-259 943 -614 1300 -350 353 -799 565 -1299 613 -76 8 -1344 10 -4095 9 -2192
-1 -4004 -3 -4026 -5z m2920 -3003 c278 -23 462 -61 640 -130 237 -93 403
-197 556 -350 169 -168 270 -341 323 -555 76 -304 57 -565 -63 -859 -82 -200
-214 -373 -374 -492 -13 -10 -17 -18 -11 -20 32 -13 139 -83 220 -144 220
-168 370 -378 459 -643 48 -145 66 -257 66 -427 1 -307 -76 -570 -236 -815
-294 -449 -825 -725 -1601 -832 -115 -16 -202 -18 -799 -15 -368 1 -804 6
-967 10 -266 6 -299 9 -315 25 -17 17 -18 137 -21 2606 -2 2508 -2 2589 16
2611 19 23 20 23 378 30 585 11 1600 11 1729 0z m4901 -1211 c18 -20 19 -44
19 -531 0 -475 -1 -510 -18 -522 -12 -10 -80 -15 -230 -19 -154 -4 -238 -11
-309 -26 -278 -57 -540 -162 -689 -277 l-59 -45 0 -1286 c0 -1183 -1 -1288
-17 -1305 -15 -17 -45 -18 -523 -18 -485 0 -509 1 -531 19 l-24 19 -6 1814
c-4 997 -9 1827 -12 1843 -4 17 -11 85 -18 153 -9 96 -9 126 1 137 11 13 79
15 485 15 539 0 501 6 551 -91 30 -61 64 -251 64 -365 0 -46 2 -84 5 -84 4 0
45 41 92 90 146 154 323 290 481 369 168 84 363 125 618 129 91 2 103 0 120
-19z"/>
<path d="M4133 7763 l-293 -3 0 -529 c0 -291 3 -543 6 -560 l7 -31 356 0 c389
-1 745 -13 831 -30 l54 -10 49 47 c55 54 127 158 155 224 100 233 48 517 -126
681 -117 110 -234 161 -442 192 -134 19 -238 23 -597 19z"/>
<path d="M3850 5032 l0 -670 258 -7 c432 -13 644 1 872 57 321 78 538 297 566
573 18 178 -91 419 -241 532 -104 79 -202 119 -371 154 -103 21 -138 23 -596
27 l-488 4 0 -670z"/>
</g>
</svg>
