<?xml version="1.0" standalone="no"?>
<!DOCTYPE svg PUBLIC "-//W3C//DTD SVG 20010904//EN"
 "http://www.w3.org/TR/2001/REC-SVG-20010904/DTD/svg10.dtd">
<svg version="1.0" xmlns="http://www.w3.org/2000/svg"
 width="2316.000000pt" height="2270.000000pt" viewBox="0 0 2316.000000 2270.000000"
 preserveAspectRatio="xMidYMid meet">

<g transform="translate(0.000000,2270.000000) scale(0.100000,-0.100000)"
fill="#000000" stroke="none">
<path d="M23066 9522 c-940 -1651 -2114 -3265 -3415 -4697 -526 -579 -1202
-1254 -1781 -1781 -1171 -1064 -2439 -2024 -3782 -2865 l-270 -169 2723 -3
c5401 -4 5391 -4 5504 17 269 50 498 166 692 350 192 181 322 412 389 692 16
64 18 405 24 4339 4 2349 6 4271 6 4272 -1 1 -41 -69 -90 -155z"/>
</g>
</svg>
